<?xml version="1.0" encoding="UTF-8"?>
<svg id="Layer_2" xmlns="http://www.w3.org/2000/svg" viewBox="0 0 47.43 47.43">
  <defs>
    <style>
      .cls-1 {
        fill: #fff;
      }

      .cls-2 {
        fill: #222221;
      }
    </style>
  </defs>
  <g id="Layer_1-2" data-name="Layer_1">
    <g>
      <rect class="cls-2" width="47.43" height="47.43" rx="8.47" ry="8.47"/>
      <g>
        <path class="cls-1" d="M20.17,31.58c.72-.15,1.35-.43,1.88-.83.47-.35.86-.79,1.18-1.31.49-.78.74-1.66.74-2.65s-.22-1.76-.65-2.43c-.43-.67-1.07-1.16-1.92-1.47.56-.28.98-.6,1.27-.95.51-.61.77-1.43.77-2.44s-.25-1.83-.76-2.53c-.84-1.15-2.28-1.74-4.3-1.77h-8.03v16.6h7.48c.84,0,1.63-.08,2.35-.23ZM13.66,18.09h3.61c.8,0,1.45.09,1.96.26.6.25.89.76.89,1.53,0,.7-.23,1.19-.68,1.46-.45.27-1.03.41-1.76.41h-4.04v-3.66ZM13.66,28.92v-4.43h4.09c.71,0,1.27.1,1.66.28.7.32,1.06.92,1.06,1.78,0,1.02-.36,1.71-1.09,2.07-.4.2-.96.29-1.68.29h-4.03Z"/>
        <g>
          <path class="cls-1" d="M26.78,30.71c1.25,1.01,2.69,1.51,4.32,1.51,1.98,0,3.52-.6,4.62-1.79.71-.75,1.1-1.49,1.19-2.22h-3.28c-.19.36-.41.64-.66.84-.46.38-1.05.56-1.78.56-.69,0-1.28-.15-1.77-.46-.81-.5-1.23-1.36-1.28-2.59h8.94c.02-1.06-.02-1.87-.11-2.44-.15-.96-.48-1.81-.98-2.54-.56-.83-1.26-1.43-2.12-1.82-.86-.38-1.82-.57-2.89-.57-1.8,0-3.26.57-4.39,1.7-1.13,1.13-1.69,2.77-1.69,4.89,0,2.27.62,3.91,1.87,4.92ZM29.07,22.55c.45-.47,1.09-.7,1.92-.7.76,0,1.39.22,1.91.66.51.44.8,1.09.86,1.94h-5.53c.12-.8.4-1.43.86-1.9Z"/>
          <rect class="cls-1" x="27.17" y="16.16" width="7.22" height="1.68"/>
        </g>
      </g>
    </g>
  </g>
</svg>