<?xml version="1.0" encoding="UTF-8"?>
<svg id="Layer_2" xmlns="http://www.w3.org/2000/svg" viewBox="0 0 47.43 47.43">
  <defs>
    <style>
      .cls-1 {
        fill: #fff;
      }

      .cls-2 {
        fill: #222221;
      }
    </style>
  </defs>
  <g id="Layer_1-2" data-name="Layer_1">
    <g>
      <rect class="cls-2" width="47.43" height="47.43" rx="8.47" ry="8.47"/>
      <g>
        <g>
          <rect class="cls-1" x="12.96" y="18.43" width="4.91" height="15.85"/>
          <path class="cls-1" d="M15.39,16.35c1.6,0,2.9-1.31,2.9-2.93s-1.3-2.93-2.9-2.93-2.9,1.31-2.9,2.93,1.3,2.93,2.9,2.93Z"/>
        </g>
        <path class="cls-1" d="M25.71,25.96c0-2.23,1.03-3.56,2.99-3.56,1.8,0,2.67,1.27,2.67,3.56v8.32h4.88v-10.04c0-4.25-2.41-6.3-5.77-6.3s-4.78,2.62-4.78,2.62v-2.14h-4.71v15.85h4.71v-8.32Z"/>
      </g>
    </g>
  </g>
</svg>